# xmcd
#
# Track frame offsets:
#	150
#	13127
#	26975
#	41565
#	57300
#	72547
#	86392
#	104077
#	121342
#	137072
#	152537
#	167870
#	184727
#	205072
#	229950
#
# Disc length: 3388 seconds
#
# Revision: 1
# Processed by: cddbd v1.5.1PL2 Copyright (c) Steve Scherf et al.
# Submitted via: audiograbber 1.83.01
#
DISCID=d60d3a0f
DTITLE=Yummie - Sweet and Sour
DYEAR=1900
DGENRE=Electronic
TTITLE0=Poppa Joe
TTITLE1=Ay Ay Ay
TTITLE2=Bubblegum
TTITLE3=Easy Come - Easy Go
TTITLE4=It's So Yummie
TTITLE5=On The Radio
TTITLE6=7 Seas
TTITLE7=Bump
TTITLE8=Make My Day
TTITLE9=Story Goes On
TTITLE10=Hello
TTITLE11=Romeo and Juliet
TTITLE12=Bubblegum (extended)
TTITLE13=Bubblegum (club mix)
TTITLE14=Bubblegum (remix)
EXTD=
EXTT0=
EXTT1=
EXTT2=
EXTT3=
EXTT4=
EXTT5=
EXTT6=
EXTT7=
EXTT8=
EXTT9=
EXTT10=
EXTT11=
EXTT12=
EXTT13=
EXTT14=
PLAYORDER=
